<mxfile>
    <diagram id="xgkFj-TU_2mgXpR0jIip" name="第 1 页">
        <mxGraphModel dx="969" dy="683" grid="1" gridSize="10" guides="1" tooltips="1" connect="1" arrows="1" fold="1" page="1" pageScale="1" pageWidth="827" pageHeight="1169" math="0" shadow="0">
            <root>
                <mxCell id="0"/>
                <mxCell id="1" parent="0"/>
                <mxCell id="31" value="" style="rounded=0;whiteSpace=wrap;html=1;fontSize=14;strokeColor=#b85450;fillColor=#997098;" vertex="1" parent="1">
                    <mxGeometry x="60" y="30" width="490" height="450" as="geometry"/>
                </mxCell>
                <mxCell id="9" value="" style="group;fontSize=17;" vertex="1" connectable="0" parent="1">
                    <mxGeometry x="80" y="80" width="210" height="170" as="geometry"/>
                </mxCell>
                <mxCell id="2" value="" style="rounded=0;whiteSpace=wrap;html=1;fillColor=#ffcc99;strokeColor=#36393d;" vertex="1" parent="9">
                    <mxGeometry width="210" height="170" as="geometry"/>
                </mxCell>
                <mxCell id="3" value="数据源" style="text;html=1;align=center;verticalAlign=middle;whiteSpace=wrap;rounded=0;fontColor=#000000;fontSize=14;" vertex="1" parent="9">
                    <mxGeometry x="82.5" y="10" width="45" height="20" as="geometry"/>
                </mxCell>
                <mxCell id="5" value="本地数据源" style="rounded=0;whiteSpace=wrap;html=1;fillColor=#dae8fc;strokeColor=#6c8ebf;fontColor=#000000;" vertex="1" parent="9">
                    <mxGeometry x="10" y="40" width="90" height="50" as="geometry"/>
                </mxCell>
                <mxCell id="6" value="网络数据源" style="rounded=0;whiteSpace=wrap;html=1;strokeColor=#d6b656;fontColor=#000000;fillColor=#CCCCFF;" vertex="1" parent="9">
                    <mxGeometry x="110" y="40" width="90" height="50" as="geometry"/>
                </mxCell>
                <mxCell id="7" value="OpenAPI" style="rounded=0;whiteSpace=wrap;html=1;" vertex="1" parent="9">
                    <mxGeometry x="10" y="100" width="90" height="50" as="geometry"/>
                </mxCell>
                <mxCell id="8" value="YAPI" style="rounded=0;whiteSpace=wrap;html=1;" vertex="1" parent="9">
                    <mxGeometry x="110" y="100" width="90" height="50" as="geometry"/>
                </mxCell>
                <mxCell id="10" value="" style="group;fontSize=14;" vertex="1" connectable="0" parent="1">
                    <mxGeometry x="320" y="80" width="210" height="170" as="geometry"/>
                </mxCell>
                <mxCell id="11" value="" style="rounded=0;whiteSpace=wrap;html=1;fillColor=#cce5ff;strokeColor=#36393d;" vertex="1" parent="10">
                    <mxGeometry width="210" height="170" as="geometry"/>
                </mxCell>
                <mxCell id="12" value="代码生成" style="text;html=1;align=center;verticalAlign=middle;whiteSpace=wrap;rounded=0;fontColor=#000000;fontSize=14;" vertex="1" parent="10">
                    <mxGeometry x="68.75" y="10" width="72.5" height="20" as="geometry"/>
                </mxCell>
                <mxCell id="13" value="基于axios" style="rounded=0;whiteSpace=wrap;html=1;fillColor=#647687;strokeColor=#314354;fontColor=#ffffff;" vertex="1" parent="10">
                    <mxGeometry x="10" y="40" width="90" height="50" as="geometry"/>
                </mxCell>
                <mxCell id="14" value="基于useRequest" style="rounded=0;whiteSpace=wrap;html=1;fillColor=#76608a;fontColor=#ffffff;strokeColor=#432D57;" vertex="1" parent="10">
                    <mxGeometry x="110" y="40" width="90" height="50" as="geometry"/>
                </mxCell>
                <mxCell id="15" value="Web" style="rounded=0;whiteSpace=wrap;html=1;" vertex="1" parent="10">
                    <mxGeometry x="10" y="100" width="90" height="50" as="geometry"/>
                </mxCell>
                <mxCell id="16" value="小程序" style="rounded=0;whiteSpace=wrap;html=1;" vertex="1" parent="10">
                    <mxGeometry x="110" y="100" width="90" height="50" as="geometry"/>
                </mxCell>
                <mxCell id="17" value="" style="group;fontSize=17;fillColor=#647687;strokeColor=#314354;fontColor=#ffffff;" vertex="1" connectable="0" parent="1">
                    <mxGeometry x="80" y="280" width="210" height="170" as="geometry"/>
                </mxCell>
                <mxCell id="18" value="" style="rounded=0;whiteSpace=wrap;html=1;strokeColor=#3A5431;fontColor=#ffffff;fillColor=#8EAB89;" vertex="1" parent="17">
                    <mxGeometry width="210" height="170" as="geometry"/>
                </mxCell>
                <mxCell id="19" value="数据模拟" style="text;html=1;align=center;verticalAlign=middle;whiteSpace=wrap;rounded=0;fontColor=#000000;fontSize=14;" vertex="1" parent="17">
                    <mxGeometry x="66.25" y="10" width="77.5" height="20" as="geometry"/>
                </mxCell>
                <mxCell id="20" value="基础类型mock" style="rounded=0;whiteSpace=wrap;html=1;fillColor=#f5f5f5;strokeColor=#666666;fontColor=#333333;" vertex="1" parent="17">
                    <mxGeometry x="10" y="40" width="90" height="50" as="geometry"/>
                </mxCell>
                <mxCell id="21" value="组合mock" style="rounded=0;whiteSpace=wrap;html=1;fillColor=#CCA57E;strokeColor=#997098;fontColor=#FFFFFF;" vertex="1" parent="17">
                    <mxGeometry x="110" y="40" width="90" height="50" as="geometry"/>
                </mxCell>
                <mxCell id="22" value="接口mock" style="rounded=0;whiteSpace=wrap;html=1;" vertex="1" parent="17">
                    <mxGeometry x="10" y="100" width="190" height="50" as="geometry"/>
                </mxCell>
                <mxCell id="24" value="" style="group;fontSize=17;strokeColor=#666666;fontColor=#333333;fillColor=#D6C198;" vertex="1" connectable="0" parent="1">
                    <mxGeometry x="320" y="280" width="210" height="170" as="geometry"/>
                </mxCell>
                <mxCell id="25" value="" style="rounded=0;whiteSpace=wrap;html=1;strokeColor=#666666;fontColor=#333333;fillColor=#F5CEC6;" vertex="1" parent="24">
                    <mxGeometry width="210" height="170" as="geometry"/>
                </mxCell>
                <mxCell id="26" value="数据中后台" style="text;html=1;align=center;verticalAlign=middle;whiteSpace=wrap;rounded=0;fontColor=#000000;fontSize=14;" vertex="1" parent="24">
                    <mxGeometry x="66.25" y="10" width="77.5" height="20" as="geometry"/>
                </mxCell>
                <mxCell id="27" value="接口浏览" style="rounded=0;whiteSpace=wrap;html=1;fillColor=#dae8fc;strokeColor=#6c8ebf;fontColor=#000000;" vertex="1" parent="24">
                    <mxGeometry x="10" y="40" width="90" height="50" as="geometry"/>
                </mxCell>
                <mxCell id="28" value="接口调用&lt;br&gt;（带鉴权）" style="rounded=0;whiteSpace=wrap;html=1;strokeColor=#82b366;fillColor=#d5e8d4;fontColor=#000000;" vertex="1" parent="24">
                    <mxGeometry x="110" y="40" width="90" height="50" as="geometry"/>
                </mxCell>
                <mxCell id="29" value="预览返回值" style="rounded=0;whiteSpace=wrap;html=1;" vertex="1" parent="24">
                    <mxGeometry x="10" y="100" width="90" height="50" as="geometry"/>
                </mxCell>
                <mxCell id="30" value="接口校验" style="rounded=0;whiteSpace=wrap;html=1;" vertex="1" parent="24">
                    <mxGeometry x="110" y="100" width="90" height="50" as="geometry"/>
                </mxCell>
                <mxCell id="32" value="前端数据中心" style="text;html=1;strokeColor=none;fillColor=none;align=center;verticalAlign=middle;whiteSpace=wrap;rounded=0;fontSize=16;fontStyle=1;fontColor=#FFFFFF;" vertex="1" parent="1">
                    <mxGeometry x="242.5" y="40" width="125" height="20" as="geometry"/>
                </mxCell>
            </root>
        </mxGraphModel>
    </diagram>
</mxfile>